<mxfile host="app.diagrams.net" modified="2024-03-07T08:28:39.157Z" agent="Mozilla/5.0 (Macintosh; Intel Mac OS X 10_15_7) AppleWebKit/537.36 (KHTML, like Gecko) Chrome/122.0.0.0 Safari/537.36" etag="FrBcoDmKPrWdswGI9Tsc" version="24.0.2" type="github">
  <diagram id="prtHgNgQTEPvFCAcTncT" name="Page-1">
    <mxGraphModel dx="1242" dy="820" grid="0" gridSize="10" guides="1" tooltips="1" connect="1" arrows="1" fold="1" page="0" pageScale="1" pageWidth="827" pageHeight="1169" background="none" math="0" shadow="0">
      <root>
        <mxCell id="0" />
        <mxCell id="1" parent="0" />
        <mxCell id="jqsSoEQQLANZwlWLKKU3-4" value="CLOSE" style="rounded=0;whiteSpace=wrap;html=1;fontSize=16;" vertex="1" parent="1">
          <mxGeometry x="120" y="100" width="120" height="60" as="geometry" />
        </mxCell>
        <mxCell id="jqsSoEQQLANZwlWLKKU3-5" value="CLOSE" style="rounded=0;whiteSpace=wrap;html=1;fontSize=16;" vertex="1" parent="1">
          <mxGeometry x="640" y="100" width="120" height="60" as="geometry" />
        </mxCell>
        <mxCell id="jqsSoEQQLANZwlWLKKU3-6" value="SYN_SENT" style="rounded=0;whiteSpace=wrap;html=1;fontSize=16;" vertex="1" parent="1">
          <mxGeometry x="120" y="160" width="120" height="170" as="geometry" />
        </mxCell>
        <mxCell id="jqsSoEQQLANZwlWLKKU3-7" value="SYN_RCVD" style="rounded=0;whiteSpace=wrap;html=1;fontSize=16;" vertex="1" parent="1">
          <mxGeometry x="640" y="240" width="120" height="200" as="geometry" />
        </mxCell>
        <mxCell id="jqsSoEQQLANZwlWLKKU3-8" value="" style="endArrow=classic;html=1;rounded=0;exitX=1;exitY=1;exitDx=0;exitDy=0;entryX=0;entryY=0;entryDx=0;entryDy=0;fontSize=16;" edge="1" parent="1" source="jqsSoEQQLANZwlWLKKU3-4" target="jqsSoEQQLANZwlWLKKU3-7">
          <mxGeometry width="50" height="50" relative="1" as="geometry">
            <mxPoint x="390" y="450" as="sourcePoint" />
            <mxPoint x="440" y="400" as="targetPoint" />
          </mxGeometry>
        </mxCell>
        <mxCell id="jqsSoEQQLANZwlWLKKU3-9" value="LISTEN" style="rounded=0;whiteSpace=wrap;html=1;fontSize=16;" vertex="1" parent="1">
          <mxGeometry x="640" y="160" width="120" height="80" as="geometry" />
        </mxCell>
        <mxCell id="jqsSoEQQLANZwlWLKKU3-10" value="" style="endArrow=classic;html=1;rounded=0;exitX=0;exitY=1;exitDx=0;exitDy=0;entryX=1;entryY=1;entryDx=0;entryDy=0;fontSize=16;" edge="1" parent="1" source="jqsSoEQQLANZwlWLKKU3-9" target="jqsSoEQQLANZwlWLKKU3-6">
          <mxGeometry width="50" height="50" relative="1" as="geometry">
            <mxPoint x="330" y="530" as="sourcePoint" />
            <mxPoint x="380" y="480" as="targetPoint" />
          </mxGeometry>
        </mxCell>
        <mxCell id="jqsSoEQQLANZwlWLKKU3-11" value="" style="endArrow=classic;html=1;rounded=0;entryX=0;entryY=1;entryDx=0;entryDy=0;fontSize=16;" edge="1" parent="1" target="jqsSoEQQLANZwlWLKKU3-7">
          <mxGeometry width="50" height="50" relative="1" as="geometry">
            <mxPoint x="240" y="330" as="sourcePoint" />
            <mxPoint x="350" y="420" as="targetPoint" />
          </mxGeometry>
        </mxCell>
        <mxCell id="jqsSoEQQLANZwlWLKKU3-12" value="ESTABLISHED" style="rounded=0;whiteSpace=wrap;html=1;fontSize=16;" vertex="1" parent="1">
          <mxGeometry x="120" y="330" width="120" height="190" as="geometry" />
        </mxCell>
        <mxCell id="jqsSoEQQLANZwlWLKKU3-13" value="ESTABLISHED" style="rounded=0;whiteSpace=wrap;html=1;fontSize=16;" vertex="1" parent="1">
          <mxGeometry x="640" y="440" width="120" height="80" as="geometry" />
        </mxCell>
        <mxCell id="jqsSoEQQLANZwlWLKKU3-14" value="SYN, seq = x" style="text;html=1;align=center;verticalAlign=middle;resizable=0;points=[];autosize=1;strokeColor=none;fillColor=none;fontSize=20;" vertex="1" parent="1">
          <mxGeometry x="390" y="160" width="140" height="40" as="geometry" />
        </mxCell>
        <mxCell id="jqsSoEQQLANZwlWLKKU3-16" value="ACK&amp;nbsp;&lt;div style=&quot;font-size: 20px;&quot;&gt;seq = x + 1, ack = y + 1&lt;/div&gt;" style="text;html=1;align=center;verticalAlign=middle;resizable=0;points=[];autosize=1;strokeColor=none;fillColor=none;fontSize=20;" vertex="1" parent="1">
          <mxGeometry x="345" y="370" width="230" height="60" as="geometry" />
        </mxCell>
        <mxCell id="jqsSoEQQLANZwlWLKKU3-15" value="SYN, ACK&amp;nbsp;&lt;div style=&quot;font-size: 20px;&quot;&gt;seq = y, ack = x + 1&lt;/div&gt;" style="text;html=1;align=center;verticalAlign=middle;resizable=0;points=[];autosize=1;strokeColor=none;fillColor=none;fontSize=20;labelBackgroundColor=none;" vertex="1" parent="1">
          <mxGeometry x="360" y="250" width="200" height="60" as="geometry" />
        </mxCell>
      </root>
    </mxGraphModel>
  </diagram>
</mxfile>
